<?xml version="1.0" encoding="utf-8"?>
<!-- Generator: Adobe Illustrator 13.0.0, SVG Export Plug-In . SVG Version: 6.00 Build 14948)  -->
<!DOCTYPE svg PUBLIC "-//W3C//DTD SVG 1.1 Tiny//EN" "http://www.w3.org/Graphics/SVG/1.1/DTD/svg11-tiny.dtd">
<svg version="1.1" baseProfile="tiny" id="Layer_1" xmlns="http://www.w3.org/2000/svg" xmlns:xlink="http://www.w3.org/1999/xlink"
	 x="0px" y="0px" width="291.411px" height="236.88px" viewBox="0 0 291.411 236.88" xml:space="preserve">
<rect x="0.5" fill-rule="evenodd" fill="#E6E6E6" width="291.411" height="236.88"/>
<g>
	<path fill="#FFFFFF" d="M198.636,129.914l20.162,13.869c-19.994,28.709-44.225,49.068-73.092,60.293
		c-28.869-11.225-53.1-31.584-73.092-60.293l20.161-13.869c2.425,5.029,5.302,9.906,8.617,14.584
		c10.946,15.443,26.197,26.994,44.314,35.631c18.114-8.637,33.366-20.188,44.311-35.631
		C193.335,139.82,196.212,134.943,198.636,129.914 M92.775,122.914c-1.403,0-2.789,0.422-3.968,1.233l-20.161,13.868
		c-1.535,1.057-2.586,2.682-2.919,4.515c-0.334,1.833,0.078,3.724,1.142,5.253c21.006,30.164,46.677,51.299,76.3,62.817
		c0.816,0.317,1.677,0.476,2.537,0.476s1.721-0.158,2.538-0.476c29.62-11.518,55.291-32.652,76.299-62.817
		c1.065-1.528,1.477-3.42,1.143-5.253c-0.333-1.833-1.384-3.458-2.92-4.515l-20.162-13.868c-1.179-0.812-2.564-1.233-3.967-1.233
		c-0.601,0-1.204,0.077-1.797,0.234c-1.975,0.524-3.622,1.886-4.509,3.727c-2.258,4.686-4.957,9.252-8.022,13.573
		c-9.063,12.786-22.038,23.5-38.602,31.882c-16.564-8.381-29.541-19.095-38.603-31.88c-3.065-4.325-5.765-8.893-8.023-13.576
		c-0.887-1.841-2.534-3.201-4.509-3.726C93.979,122.991,93.375,122.914,92.775,122.914L92.775,122.914z"/>
	<path fill-rule="evenodd" fill="#002A78" d="M190.017,144.498c-10.945,15.443-26.197,26.994-44.311,35.631
		c-18.117-8.637-33.368-20.188-44.314-35.631c-3.315-4.678-6.192-9.555-8.617-14.584l-20.161,13.869
		c19.992,28.709,44.224,49.068,73.092,60.293c28.868-11.225,53.098-31.584,73.092-60.293l-20.162-13.869
		C196.212,134.943,193.335,139.82,190.017,144.498z"/>
	<g>
		<path fill="#FFFFFF" stroke="#FFFFFF" stroke-width="0.25" d="M103.105,169.063l7.052-7.625l1.54,1.424l-7.053,7.625
			L103.105,169.063z"/>
		<path fill="#FFFFFF" stroke="#FFFFFF" stroke-width="0.25" d="M113.733,168.477l-1.044,1.195l-1.025-0.895l-1.992,2.285
			c-0.404,0.463-0.63,0.742-0.677,0.834c-0.047,0.096-0.058,0.197-0.031,0.307c0.025,0.111,0.089,0.209,0.188,0.297
			c0.139,0.121,0.381,0.248,0.729,0.381l-0.887,1.277c-0.479-0.156-0.939-0.426-1.382-0.811c-0.27-0.236-0.475-0.494-0.612-0.773
			c-0.138-0.281-0.194-0.537-0.17-0.77c0.023-0.232,0.124-0.49,0.299-0.77c0.12-0.201,0.412-0.568,0.874-1.1l2.156-2.471l-0.688-0.6
			l1.043-1.197l0.689,0.602l0.982-1.127l2.269,0.438l-1.746,2.002L113.733,168.477z"/>
		<path fill="#FFFFFF" stroke="#FFFFFF" stroke-width="0.25" d="M120.6,178.533l1.249,1.73c-0.927,0.725-1.845,1.09-2.754,1.102
			c-0.91,0.01-1.813-0.318-2.709-0.98c-1.106-0.824-1.736-1.877-1.889-3.164c-0.151-1.285,0.26-2.582,1.233-3.895
			c1.03-1.389,2.188-2.201,3.476-2.438s2.514,0.078,3.683,0.945c1.021,0.758,1.625,1.674,1.815,2.75
			c0.114,0.637,0.019,1.361-0.287,2.168l-1.963-0.838c0.223-0.506,0.271-1,0.144-1.48c-0.127-0.484-0.415-0.891-0.863-1.225
			c-0.618-0.457-1.284-0.607-1.998-0.449s-1.44,0.734-2.178,1.729c-0.782,1.053-1.149,1.945-1.103,2.674
			c0.048,0.729,0.374,1.318,0.981,1.77c0.447,0.332,0.938,0.475,1.472,0.43S120.006,179.041,120.6,178.533z"/>
		<path fill="#FFFFFF" stroke="#FFFFFF" stroke-width="0.25" d="M125.424,180.127l-1.341-1.254c0.565-0.5,1.151-0.764,1.757-0.787
			c0.606-0.025,1.32,0.227,2.142,0.758c0.746,0.482,1.244,0.93,1.496,1.342c0.25,0.412,0.362,0.803,0.336,1.17
			c-0.027,0.367-0.274,0.914-0.744,1.641l-1.278,1.941c-0.358,0.555-0.597,0.982-0.713,1.281c-0.117,0.297-0.2,0.645-0.248,1.041
			l-1.654-1.068c0.028-0.141,0.081-0.34,0.158-0.598c0.036-0.117,0.059-0.195,0.067-0.236c-0.465,0.094-0.905,0.105-1.32,0.033
			c-0.415-0.07-0.807-0.225-1.176-0.463c-0.65-0.42-1.05-0.928-1.196-1.523s-0.046-1.164,0.303-1.703
			c0.23-0.357,0.521-0.621,0.873-0.789c0.352-0.17,0.729-0.23,1.132-0.18c0.404,0.049,0.931,0.205,1.582,0.469
			c0.876,0.357,1.507,0.57,1.89,0.639l0.108-0.166c0.207-0.322,0.275-0.602,0.205-0.842c-0.069-0.24-0.325-0.5-0.766-0.785
			c-0.298-0.191-0.567-0.283-0.81-0.273S125.717,179.9,125.424,180.127z M126.785,182.93c-0.261-0.066-0.655-0.201-1.184-0.402
			s-0.894-0.299-1.099-0.297c-0.317,0.014-0.554,0.141-0.707,0.379c-0.152,0.234-0.195,0.492-0.131,0.775s0.231,0.512,0.502,0.688
			c0.302,0.193,0.652,0.281,1.055,0.26c0.3-0.021,0.552-0.119,0.756-0.297c0.136-0.115,0.334-0.371,0.593-0.773L126.785,182.93z"/>
		<path fill="#FFFFFF" stroke="#FFFFFF" stroke-width="0.25" d="M134.009,191.342l-1.735-0.975l1.883-3.348
			c0.398-0.709,0.619-1.186,0.661-1.438c0.044-0.248,0.014-0.479-0.088-0.688c-0.103-0.209-0.27-0.379-0.505-0.51
			c-0.3-0.17-0.616-0.24-0.947-0.209c-0.331,0.029-0.618,0.156-0.859,0.379c-0.242,0.221-0.568,0.697-0.98,1.432l-1.671,2.971
			l-1.735-0.977l3.689-6.559l1.611,0.906l-0.542,0.965c0.989-0.42,1.918-0.385,2.787,0.104c0.383,0.215,0.693,0.482,0.934,0.797
			c0.238,0.316,0.378,0.629,0.421,0.934s0.02,0.611-0.07,0.92c-0.09,0.307-0.275,0.713-0.56,1.221L134.009,191.342z"/>
		<path fill="#FFFFFF" stroke="#FFFFFF" stroke-width="0.25" d="M143.02,186.485l3.955-1.27c0.782-0.252,1.375-0.406,1.782-0.465
			c0.404-0.057,0.791-0.031,1.162,0.078s0.711,0.303,1.023,0.582c0.314,0.279,0.539,0.631,0.676,1.059
			c0.148,0.463,0.16,0.928,0.035,1.396c-0.125,0.467-0.369,0.865-0.734,1.195c0.658-0.018,1.217,0.133,1.676,0.451
			s0.781,0.764,0.965,1.336c0.146,0.449,0.18,0.92,0.107,1.412s-0.248,0.922-0.529,1.293c-0.279,0.371-0.676,0.67-1.189,0.898
			c-0.32,0.143-1.115,0.424-2.387,0.84l-3.366,1.082L143.02,186.485z M145.547,187.489l0.732,2.287l1.309-0.42
			c0.779-0.25,1.258-0.416,1.439-0.5c0.33-0.15,0.561-0.354,0.693-0.613c0.133-0.258,0.146-0.547,0.045-0.865
			c-0.098-0.307-0.262-0.529-0.492-0.666c-0.229-0.135-0.518-0.17-0.863-0.104c-0.205,0.041-0.777,0.211-1.719,0.512
			L145.547,187.489z M146.809,191.423l0.85,2.645l1.848-0.594c0.721-0.23,1.17-0.398,1.35-0.502
			c0.279-0.148,0.479-0.357,0.598-0.625c0.119-0.27,0.123-0.58,0.012-0.93c-0.096-0.299-0.248-0.525-0.461-0.688
			c-0.209-0.16-0.465-0.244-0.768-0.25c-0.303-0.01-0.908,0.133-1.816,0.426L146.809,191.423z"/>
		<path fill="#FFFFFF" stroke="#FFFFFF" stroke-width="0.25" d="M158.829,188.067l1.9-0.656c0.125,0.762,0.035,1.441-0.266,2.037
			c-0.303,0.598-0.814,1.094-1.541,1.488c-1.15,0.627-2.205,0.713-3.164,0.264c-0.764-0.363-1.395-1.006-1.895-1.922
			c-0.596-1.094-0.777-2.107-0.543-3.041c0.236-0.93,0.789-1.635,1.666-2.111c0.982-0.535,1.936-0.633,2.857-0.295
			c0.922,0.342,1.734,1.188,2.439,2.541l-4.381,2.385c0.295,0.512,0.656,0.838,1.082,0.98c0.428,0.141,0.842,0.102,1.244-0.117
			c0.273-0.148,0.463-0.35,0.568-0.6S158.913,188.452,158.829,188.067z M157.966,186.247c-0.287-0.5-0.629-0.813-1.021-0.939
			c-0.393-0.129-0.768-0.096-1.123,0.098c-0.383,0.209-0.621,0.52-0.719,0.934c-0.098,0.412-0.014,0.855,0.25,1.33L157.966,186.247z
			"/>
		<path fill="#FFFFFF" stroke="#FFFFFF" stroke-width="0.25" d="M160.337,177.968l3.182-2.135c0.717-0.482,1.301-0.795,1.752-0.938
			c0.605-0.191,1.217-0.217,1.834-0.078c0.615,0.139,1.203,0.42,1.76,0.844c0.559,0.426,1.109,1.041,1.65,1.85
			c0.477,0.711,0.799,1.381,0.967,2.012c0.205,0.773,0.24,1.488,0.1,2.145c-0.105,0.496-0.359,1-0.762,1.51
			c-0.303,0.379-0.775,0.785-1.418,1.217l-3.279,2.199L160.337,177.968z M163.058,178.259l3.832,5.713l1.301-0.873
			c0.486-0.326,0.818-0.59,0.996-0.789c0.236-0.26,0.391-0.537,0.465-0.83c0.072-0.295,0.037-0.674-0.105-1.139
			c-0.141-0.465-0.434-1.031-0.881-1.699c-0.449-0.666-0.852-1.139-1.207-1.416c-0.357-0.277-0.709-0.447-1.057-0.504
			c-0.346-0.059-0.705-0.014-1.078,0.135c-0.279,0.109-0.775,0.4-1.484,0.877L163.058,178.259z"/>
		<path fill="#FFFFFF" stroke="#FFFFFF" stroke-width="0.25" d="M171.681,178.151c-0.404-0.523-0.664-1.131-0.783-1.82
			s-0.041-1.346,0.232-1.967c0.275-0.623,0.705-1.158,1.289-1.607c0.902-0.695,1.865-0.971,2.895-0.828
			c1.027,0.141,1.885,0.66,2.572,1.555c0.695,0.902,0.979,1.875,0.854,2.916c-0.127,1.041-0.631,1.9-1.512,2.58
			c-0.547,0.422-1.166,0.699-1.852,0.832c-0.686,0.137-1.342,0.064-1.965-0.215C172.784,179.319,172.208,178.837,171.681,178.151z
			 M173.362,176.991c0.455,0.592,0.943,0.936,1.467,1.035c0.523,0.098,0.99-0.012,1.402-0.328s0.635-0.738,0.672-1.268
			s-0.176-1.094-0.635-1.693c-0.449-0.582-0.936-0.926-1.457-1.025c-0.52-0.1-0.986,0.008-1.398,0.326
			c-0.41,0.316-0.637,0.74-0.676,1.27C172.7,175.839,172.907,176.399,173.362,176.991z"/>
		<path fill="#FFFFFF" stroke="#FFFFFF" stroke-width="0.25" d="M186.278,171.243l-1.506,1.303l-2.512-2.904
			c-0.529-0.615-0.906-0.984-1.127-1.109s-0.447-0.176-0.678-0.15s-0.449,0.125-0.652,0.303c-0.262,0.225-0.434,0.498-0.516,0.82
			c-0.084,0.322-0.063,0.635,0.064,0.938c0.127,0.301,0.467,0.77,1.016,1.406l2.227,2.578l-1.504,1.303l-4.922-5.693l1.398-1.209
			l0.723,0.836c-0.059-1.072,0.289-1.934,1.043-2.586c0.332-0.287,0.688-0.488,1.066-0.609c0.379-0.117,0.719-0.145,1.021-0.08
			c0.301,0.064,0.58,0.189,0.84,0.377s0.58,0.502,0.959,0.941L186.278,171.243z"/>
		<path fill="#FFFFFF" stroke="#FFFFFF" stroke-width="0.25" d="M188.983,165.372l1.66-1.133c0.32,0.701,0.412,1.381,0.279,2.035
			c-0.133,0.656-0.5,1.27-1.096,1.842c-0.945,0.904-1.939,1.268-2.984,1.086c-0.832-0.152-1.609-0.604-2.332-1.357
			c-0.863-0.9-1.303-1.83-1.322-2.791c-0.018-0.961,0.334-1.787,1.051-2.477c0.809-0.773,1.701-1.119,2.682-1.033
			c0.977,0.086,1.984,0.688,3.02,1.809l-3.598,3.453c0.418,0.416,0.852,0.637,1.301,0.66c0.449,0.025,0.838-0.121,1.17-0.439
			c0.225-0.215,0.355-0.457,0.391-0.727S189.165,165.72,188.983,165.372z M187.671,163.841c-0.408-0.406-0.818-0.617-1.232-0.639
			c-0.41-0.02-0.764,0.109-1.059,0.393c-0.313,0.301-0.461,0.662-0.447,1.086c0.016,0.426,0.211,0.832,0.592,1.221L187.671,163.841z
			"/>
	</g>
	<path fill="#FFFFFF" d="M145.706,32.804c0.279,0,0.557,0.069,0.803,0.202l0.021,0.012c13.366,12.393,28.758,21.008,48.782,21.008
		c2.793,0,5.68-0.168,8.66-0.517c0.038-0.004,0.075-0.007,0.112-0.007c0.749,0,1.271,0.889,1.271,1.665v24.42
		c0,19.679-5.51,38.903-15.938,55.59c-10.424,16.691-25.283,30.072-42.973,38.701c-0.23,0.113-0.48,0.17-0.738,0.17h-0.002
		c-0.258,0-0.506-0.057-0.738-0.17c-17.687-8.629-32.546-22.01-42.972-38.701c-10.428-16.688-15.938-35.911-15.938-55.59v-24.42
		c0-0.776,0.521-1.665,1.27-1.665c0.037,0,0.074,0.002,0.112,0.007c2.982,0.349,5.866,0.517,8.661,0.517
		c20.021,0,35.417-8.616,48.783-21.008l0.021-0.012c0.244-0.133,0.521-0.202,0.801-0.202H145.706 M145.706,25.804h-0.002
		c-1.446,0-2.879,0.364-4.146,1.053l-1.436,1.027c-14.086,13.059-28.075,19.141-44.024,19.141c-2.546,0-5.186-0.158-7.848-0.469
		c-0.289-0.034-0.596-0.053-0.901-0.054c-4.584,0-8.294,3.887-8.294,8.665v24.42c0,20.996,5.879,41.5,17.001,59.299
		c11.119,17.802,26.97,32.078,45.839,41.283c1.199,0.584,2.478,0.879,3.808,0.879c1.323,0,2.646-0.307,3.828-0.888
		c18.854-9.196,34.705-23.472,45.823-41.275c11.121-17.798,17-38.303,17-59.298v-24.42c0-4.777-3.709-8.664-8.269-8.665
		c-0.313,0-0.627,0.019-0.937,0.055c-2.651,0.311-5.292,0.468-7.838,0.468c-15.95,0-29.938-6.082-44.022-19.141l-1.457-1.039
		C148.569,26.164,147.143,25.804,145.706,25.804L145.706,25.804z"/>
	<path fill-rule="evenodd" fill="#002A78" d="M189.417,135.178c10.428-16.688,15.938-35.911,15.938-55.59v-24.42
		c0-0.776-0.521-1.665-1.271-1.665c-0.037,0-0.074,0.002-0.112,0.007c-2.98,0.349-5.867,0.517-8.66,0.517
		c-20.023,0-35.416-8.615-48.782-21.008l-0.021-0.012c-0.246-0.133-0.523-0.202-0.803-0.202h-0.002
		c-0.279,0-0.557,0.069-0.801,0.202l-0.021,0.012C131.515,45.41,116.12,54.025,96.098,54.025c-2.795,0-5.678-0.168-8.661-0.517
		c-0.038-0.004-0.076-0.007-0.112-0.007c-0.748,0-1.27,0.889-1.27,1.665v24.42c0,19.679,5.51,38.903,15.938,55.59
		c10.426,16.691,25.285,30.072,42.972,38.701c0.232,0.113,0.48,0.17,0.738,0.17h0.002c0.258,0,0.508-0.057,0.738-0.17
		C164.134,165.25,178.993,151.869,189.417,135.178z"/>
	<g>
		<path fill="#FFFFFF" d="M94.067,80.107l-0.587-0.664l-1.008-1.105l-0.409-0.493l-0.703-0.803l-0.21-0.209
			c-0.225-0.197-0.516-0.24-0.875-0.128c-0.358,0.112-0.614,0.104-0.769-0.023l-0.147-0.155c-0.279-0.336-0.276-0.763,0.01-1.277
			c0.287-0.515,0.751-1.039,1.394-1.572c0.607-0.503,1.168-0.841,1.685-1.012c0.516-0.172,0.89-0.163,1.122,0.029l0.095,0.092
			c0.161,0.194,0.204,0.421,0.128,0.683c-0.167,0.637-0.104,1.132,0.189,1.485l2.839,3.512c0.468,0.564,0.786,1.094,0.952,1.589
			c0.167,0.495,0.231,0.978,0.195,1.449c-0.036,0.471-0.197,0.942-0.483,1.414c-0.286,0.472-0.649,0.89-1.089,1.256
			c-0.672,0.557-1.373,0.917-2.103,1.082c-0.93,0.216-1.726,0.05-2.388-0.498l-0.264-0.208l-0.125-0.195
			c-0.357-0.43-0.542-0.885-0.556-1.365c-0.014-0.48,0.156-0.866,0.51-1.16c0.289-0.239,0.601-0.37,0.937-0.392
			c0.35-0.005,0.697,0.127,1.042,0.396l0.179,0.172l0.095,0.114l0.094,0.157l0.303,0.475l0.084,0.08
			c0.092,0.081,0.193,0.125,0.303,0.133c0.11,0.008,0.245-0.053,0.404-0.186c0.238-0.197,0.32-0.496,0.245-0.896
			C95.08,81.482,94.717,80.891,94.067,80.107z"/>
		<path fill="#FFFFFF" d="M97.911,76.259l-0.195-0.285l-0.256-0.382c-0.691-1.104-1.017-2.253-0.978-3.446
			c0.039-1.193,0.424-2.251,1.153-3.173l0.521-0.52l0.678-0.482c1.034-0.647,2.162-0.888,3.384-0.723
			c1.332,0.2,2.534,0.881,3.605,2.044l0.388,0.435l0.294,0.417c0.441,0.705,0.737,1.408,0.888,2.108s0.145,1.443-0.017,2.229
			c-0.336,1.515-1.101,2.646-2.294,3.393c-0.931,0.583-1.939,0.839-3.023,0.769c-1.393-0.084-2.628-0.706-3.708-1.864l-0.277-0.311
			L97.911,76.259z M104.605,73.845l-0.13-0.287l-0.16-0.229c-0.245-0.39-0.539-0.781-0.884-1.173l-0.612-0.606L102.177,71
			l-0.638-0.435c-0.1-0.054-0.215-0.114-0.346-0.181c-0.13-0.067-0.223-0.109-0.278-0.126c-0.503-0.203-0.926-0.197-1.268,0.018
			c-0.311,0.194-0.472,0.463-0.483,0.807s0.102,0.706,0.34,1.087l0.408,0.599l0.543,0.629c0.768,0.838,1.526,1.483,2.273,1.934
			c0.318,0.189,0.617,0.296,0.898,0.321s0.513-0.021,0.696-0.135c0.231-0.144,0.373-0.382,0.426-0.712
			C104.801,74.473,104.754,74.153,104.605,73.845z"/>
		<path fill="#FFFFFF" d="M108.022,67.581l-0.412-0.913l-0.319-0.56c-0.208-0.292-0.42-0.426-0.636-0.404
			c-0.095-0.006-0.225-0.034-0.389-0.082c-0.116-0.057-0.194-0.118-0.233-0.185l-0.098-0.154c-0.174-0.402-0.036-0.826,0.417-1.273
			c0.452-0.447,1.015-0.816,1.688-1.109c0.665-0.289,1.201-0.449,1.607-0.481c0.416-0.012,0.723,0.13,0.924,0.427l0.053,0.121
			c0.105,0.242,0.095,0.499-0.03,0.769l-0.255,0.596l0.061,0.28l0.086,0.304l0.199,0.633l0.223,0.515
			c0.126,0.197,0.25,0.317,0.371,0.361c0.12,0.02,0.274-0.011,0.463-0.093l0.462-0.201l0.411-0.178
			c0.36-0.156,0.579-0.29,0.658-0.401s0.088-0.237,0.027-0.378l-0.065-0.15l-0.3-0.691l-0.288-0.518
			c-0.223-0.344-0.518-0.537-0.885-0.581c-0.177-0.019-0.313-0.09-0.41-0.215l-0.079-0.181V62.73
			c-0.157-0.36-0.06-0.715,0.291-1.063c0.35-0.349,0.887-0.68,1.61-0.994c0.568-0.247,1.001-0.404,1.298-0.474
			c0.668-0.135,1.139-0.017,1.412,0.354l0.104,0.17c0.104,0.241,0.102,0.469-0.01,0.684l-0.295,0.558
			c-0.051,0.237,0.133,0.837,0.551,1.801l1.752,4.037l0.169,0.355l0.196,0.381c0.052,0.073,0.113,0.136,0.182,0.189
			c0.069,0.053,0.229,0.098,0.479,0.132c0.237,0.052,0.417,0.16,0.539,0.321l0.098,0.19c0.166,0.382-0.015,0.794-0.541,1.237
			l-0.666,0.45l-0.848,0.422c-0.613,0.266-1.097,0.416-1.451,0.451c-0.506,0.064-0.881-0.09-1.124-0.462l-0.079-0.181
			c-0.096-0.221-0.079-0.45,0.051-0.685c0.21-0.366,0.235-0.819,0.075-1.359l-0.412-0.951l-0.209-0.482l-0.046-0.106
			c-0.052-0.097-0.142-0.156-0.268-0.18c-0.126-0.022-0.296,0.012-0.509,0.104l-0.536,0.233c-0.426,0.185-0.681,0.319-0.766,0.404
			c-0.22,0.191-0.274,0.418-0.161,0.679l0.504,1.162l0.183,0.422c0.205,0.27,0.414,0.448,0.627,0.535l0.375,0.106
			c0.114,0.034,0.206,0.096,0.277,0.184l0.098,0.227c0.188,0.432,0.033,0.876-0.466,1.331c-0.339,0.303-0.875,0.613-1.606,0.931
			c-0.551,0.239-1.036,0.372-1.454,0.398c-0.526,0.038-0.893-0.089-1.102-0.381l-0.072-0.13c-0.083-0.19-0.107-0.341-0.073-0.451
			s0.146-0.29,0.334-0.539c0.107-0.153,0.125-0.394,0.055-0.722l-0.158-0.576l-0.249-0.644L108.022,67.581z"/>
		<path fill="#FFFFFF" d="M121.014,67.055l-0.252-1.192l-0.149-0.573l-0.153-0.589l-0.518-1.882l-0.188-0.612
			c-0.022-0.084-0.054-0.18-0.097-0.288c-0.042-0.107-0.103-0.236-0.18-0.385c-0.22-0.474-0.584-0.809-1.09-1.004
			c-0.224-0.077-0.382-0.2-0.474-0.368l-0.077-0.184c-0.074-0.285-0.006-0.546,0.205-0.782c0.282-0.333,0.76-0.587,1.434-0.763
			c0.601-0.156,1.018-0.231,1.253-0.224c0.229-0.015,0.515,0.092,0.855,0.319l1.785,1.093l2.672,1.591
			c0.241,0.141,0.448,0.21,0.623,0.21c0.127-0.033,0.192-0.157,0.195-0.373l-0.019-0.351l-0.124-0.476l-0.231-0.888
			c-0.14-0.268-0.448-0.515-0.926-0.741c-0.194-0.096-0.34-0.233-0.436-0.412l-0.045-0.174c-0.104-0.401,0.04-0.732,0.433-0.993
			c0.263-0.17,0.668-0.327,1.217-0.469c0.584-0.152,1.012-0.223,1.283-0.215c0.453,0.007,0.749,0.167,0.888,0.482l0.045,0.175
			l0.025,0.095c0.041,0.159,0.031,0.303-0.031,0.433c-0.048,0.148-0.142,0.292-0.283,0.43c-0.141,0.139-0.232,0.312-0.273,0.521
			c-0.042,0.208-0.025,0.456,0.049,0.742l0.169,0.652l0.29,1.282l0.546,2.098l0.723,2.781c0.066,0.254,0.109,0.475,0.128,0.663
			c0,0.113-0.001,0.198-0.006,0.256c-0.027,0.12-0.044,0.204-0.051,0.251c-0.03,0.257-0.164,0.416-0.399,0.477
			c-0.155,0.04-0.361,0.021-0.62-0.06c-0.258-0.08-0.494-0.194-0.707-0.343l-1.674-1.009l-1.788-1.115l-1.406-0.875
			c-0.347-0.25-0.624-0.348-0.833-0.293c-0.2,0.052-0.263,0.295-0.188,0.729l0.208,1.135l0.232,0.67l0.166,0.416l0.057,0.104
			c0.036,0.104,0.209,0.209,0.518,0.315s0.502,0.251,0.579,0.436l0.068,0.152c0.116,0.446-0.022,0.828-0.415,1.145
			c-0.316,0.241-0.787,0.442-1.414,0.605c-0.427,0.111-0.835,0.135-1.225,0.072c-0.39-0.063-0.662-0.244-0.818-0.543l-0.038-0.092
			l-0.017-0.064l-0.02-0.131c-0.033-0.127,0.098-0.444,0.393-0.952C121.036,67.718,121.078,67.413,121.014,67.055z"/>
		<path fill="#FFFFFF" d="M130.993,57.734c-0.089-0.596-0.01-1.09,0.235-1.481s0.573-0.617,0.981-0.678
			c0.371-0.055,0.728,0.033,1.071,0.265s0.598,0.59,0.765,1.075l0.106,0.333l0.036,0.244c0.103,0.694,0.05,1.428-0.157,2.201
			c-0.142,0.453-0.352,0.956-0.63,1.507c-0.149,0.277-0.315,0.496-0.5,0.656c-0.185,0.161-0.37,0.254-0.556,0.282
			c-0.135-0.013-0.248-0.041-0.339-0.083s-0.168-0.142-0.229-0.298c0.001-0.122,0.159-0.495,0.475-1.118l0.128-0.385
			c0.025-0.147,0.03-0.281,0.012-0.4l-0.059-0.208c-0.066-0.189-0.206-0.363-0.419-0.52c-0.149-0.111-0.256-0.195-0.322-0.251
			c-0.098-0.085-0.176-0.162-0.233-0.231c-0.117-0.149-0.209-0.323-0.277-0.524L130.993,57.734z"/>
		<path fill="#FFFFFF" d="M136.187,58.841c-0.063-1.083,0.308-2.033,1.115-2.85c0.764-0.759,1.609-1.166,2.537-1.221
			c0.431-0.025,0.822-0.007,1.174,0.054c0.351,0.062,0.661,0.145,0.931,0.25l0.187,0.039l0.139-0.025l0.124-0.057l0.356-0.169
			c0.141-0.008,0.29,0.055,0.448,0.188c0.268,0.226,0.505,0.506,0.713,0.839c0.207,0.334,0.359,0.685,0.457,1.052l0.073,0.522
			c0.013,0.219-0.053,0.429-0.196,0.629c-0.143,0.201-0.345,0.331-0.604,0.39c-0.216,0.013-0.566-0.208-1.055-0.663
			c-0.558-0.538-1-0.853-1.324-0.943c-0.164-0.056-0.343-0.079-0.54-0.067c-0.263,0.016-0.469,0.094-0.621,0.234
			c-0.151,0.141-0.236,0.366-0.256,0.674c0.059,0.194,0.129,0.355,0.212,0.482c0.082,0.127,0.229,0.228,0.44,0.303L143,59.345
			c0.919,0.44,1.497,1.153,1.733,2.138l0.095,0.406l0.039,0.426c0.055,0.93-0.219,1.787-0.821,2.569
			c-0.778,0.99-1.903,1.529-3.374,1.616l-0.478,0.028c-0.544,0.032-1.097-0.018-1.659-0.149c-0.771-0.174-1.301-0.456-1.587-0.845
			l-0.323-0.689l-0.154-0.469l-0.143-0.502l-0.093-0.39l-0.056-0.458c0.03-0.276,0.066-0.465,0.107-0.566
			c0.081-0.213,0.226-0.327,0.432-0.339c0.3-0.018,0.585,0.24,0.856,0.773s0.641,0.942,1.109,1.228
			c0.468,0.285,0.922,0.415,1.362,0.389c0.318-0.019,0.573-0.083,0.765-0.193c0.281-0.159,0.413-0.403,0.394-0.732l-0.006-0.098
			c-0.062-0.249-0.286-0.461-0.672-0.636l-0.882-0.36c-0.733-0.319-1.36-0.667-1.881-1.042c-0.817-0.633-1.319-1.333-1.506-2.102
			l-0.043-0.245L136.187,58.841z"/>
		<path fill="#FFFFFF" d="M163.699,59.453c-0.061,0.379-0.204,0.67-0.431,0.873c-0.228,0.203-0.507,0.3-0.838,0.292
			c-0.26-0.041-0.487-0.224-0.683-0.548c-0.138-0.214-0.229-0.477-0.274-0.789c-0.075-0.305-0.158-0.524-0.252-0.658
			c-0.093-0.133-0.204-0.21-0.334-0.231c-0.176-0.028-0.309,0.043-0.396,0.212c-0.089,0.17-0.156,0.396-0.2,0.678l-0.422,2.657
			l-0.378,2.379l-0.025,0.431c-0.012,0.132,0.024,0.291,0.109,0.477s0.246,0.365,0.485,0.536c0.242,0.15,0.365,0.331,0.37,0.543
			l-0.004,0.2c-0.067,0.423-0.348,0.691-0.84,0.802c-0.286,0.066-0.626,0.093-1.018,0.081c-0.393-0.012-0.835-0.057-1.326-0.135
			c-0.648-0.103-1.232-0.257-1.751-0.461c-0.733-0.294-1.103-0.63-1.108-1.009l0.004-0.116l0.032-0.111
			c0.085-0.297,0.223-0.475,0.412-0.534l0.522-0.15c0.179-0.049,0.308-0.137,0.385-0.264c0.076-0.126,0.13-0.254,0.16-0.383
			l0.098-0.434l0.265-1.49l0.324-1.597l0.267-1.406l0.117-0.647l0.018-0.38c-0.004-0.334-0.095-0.515-0.271-0.542
			c-0.167-0.026-0.412,0.14-0.735,0.499l-0.789,0.841c-0.291,0.22-0.548,0.313-0.771,0.277c-0.428-0.179-0.655-0.514-0.682-1.007
			l0.013-0.348c0.027-0.173,0.075-0.354,0.144-0.543c0.067-0.189,0.117-0.32,0.147-0.393c0.03-0.072,0.087-0.186,0.168-0.339
			c0.219-0.42,0.484-0.778,0.798-1.072c0.201-0.19,0.371-0.321,0.511-0.394c0.14-0.072,0.256-0.101,0.349-0.086l0.643,0.263
			l0.323,0.123l0.348,0.055l3.962,0.629c0.084,0.013,0.18,0.026,0.287,0.037c0.107,0.012,0.251,0.015,0.433,0.011l0.68-0.059
			c0.111,0.018,0.216,0.059,0.314,0.125c0.1,0.066,0.212,0.208,0.339,0.429c0.156,0.213,0.282,0.494,0.379,0.843
			c0.097,0.348,0.149,0.734,0.159,1.157C163.738,59.054,163.727,59.28,163.699,59.453z"/>
		<path fill="#FFFFFF" d="M164.149,63.201l0.088-0.334l0.121-0.444c0.382-1.245,1.036-2.244,1.964-2.996s1.979-1.154,3.153-1.206
			l0.734,0.053l0.809,0.196c1.166,0.357,2.087,1.052,2.763,2.083c0.722,1.137,0.993,2.492,0.816,4.063l-0.074,0.578l-0.122,0.495
			c-0.244,0.796-0.582,1.479-1.012,2.052c-0.431,0.572-0.996,1.054-1.695,1.447c-1.365,0.738-2.721,0.901-4.066,0.488
			c-1.05-0.322-1.904-0.916-2.562-1.781c-0.849-1.107-1.188-2.448-1.02-4.022l0.053-0.413L164.149,63.201z M170.357,66.678
			l0.133-0.286l0.068-0.271c0.135-0.44,0.237-0.919,0.308-1.437l0.058-0.859l-0.007-0.845l-0.089-0.767
			c-0.024-0.111-0.055-0.237-0.09-0.38c-0.034-0.143-0.063-0.24-0.087-0.293c-0.176-0.512-0.458-0.828-0.843-0.946
			c-0.351-0.107-0.659-0.053-0.927,0.163c-0.268,0.216-0.467,0.539-0.599,0.969l-0.186,0.7l-0.119,0.823
			c-0.131,1.129-0.121,2.125,0.027,2.984c0.065,0.364,0.181,0.66,0.346,0.889c0.166,0.229,0.352,0.375,0.559,0.438
			c0.26,0.08,0.532,0.032,0.817-0.145C170.012,67.237,170.223,66.992,170.357,66.678z"/>
		<path fill="#FFFFFF" d="M177.555,65.92l0.414-2.523c0.069-0.322,0.035-0.586-0.103-0.792s-0.188-0.397-0.15-0.575l0.159-0.344
			c0.1-0.196,0.26-0.324,0.48-0.384c0.123-0.036,0.356-0.047,0.698-0.033l0.644,0.198l0.519,0.227l0.435,0.203l0.497,0.271
			l0.471,0.258c0.294,0.211,0.49,0.406,0.589,0.586c0.099,0.18,0.114,0.388,0.047,0.625l-0.061,0.117l-0.074,0.147
			c-0.035,0.069-0.141,0.163-0.317,0.283c-0.193,0.111-0.33,0.246-0.41,0.402l-0.137,0.486l-0.339,2.066l-0.066,0.596
			c0.002,0.162,0.039,0.267,0.109,0.314c0.165,0.047,0.358-0.044,0.581-0.274l0.546-0.514l0.547-0.549l0.092-0.211
			c0.029-0.12,0.059-0.326,0.09-0.617l0.028-0.371l0.021-0.357c0.035-0.215-0.012-0.39-0.142-0.523
			c-0.129-0.133-0.188-0.264-0.176-0.393l0.082-0.161c0.178-0.351,0.588-0.461,1.229-0.332c0.504,0.109,1.129,0.354,1.876,0.733
			c0.562,0.286,1.008,0.577,1.337,0.874c0.33,0.296,0.452,0.602,0.366,0.915l-0.052,0.103l-0.074,0.146
			c-0.054,0.083-0.223,0.173-0.508,0.268c-0.285,0.095-0.478,0.24-0.576,0.436l-0.076,0.367l-0.18,1.938
			c-0.026,0.528,0.008,0.834,0.102,0.918c0.19,0.06,0.444-0.087,0.762-0.442c0.561-0.502,1.038-1.028,1.434-1.577l0.09-0.176
			l0.066-0.132c0.062-0.141-0.007-0.323-0.203-0.546c-0.179-0.176-0.23-0.4-0.157-0.67l0.037-0.073l0.045-0.088
			c0.153-0.303,0.416-0.437,0.788-0.402s0.783,0.167,1.235,0.397c0.394,0.2,0.684,0.384,0.872,0.553
			c0.318,0.285,0.429,0.605,0.332,0.961l-0.084,0.196c-0.124,0.244-0.281,0.382-0.471,0.415c-0.19,0.033-0.374,0.102-0.549,0.209
			c-0.176,0.107-0.377,0.269-0.603,0.486l-5.974,5.879c-0.228,0.241-0.47,0.396-0.728,0.468c-0.257,0.072-0.495,0.052-0.713-0.058
			c-0.184-0.094-0.324-0.257-0.421-0.491c-0.098-0.234-0.123-0.499-0.077-0.795l0.491-3.919c0.095-0.518,0.075-0.811-0.059-0.878
			c-0.101-0.051-0.319,0.078-0.655,0.387l-2.738,2.685c-0.291,0.283-0.569,0.458-0.835,0.525c-0.267,0.067-0.496,0.052-0.688-0.045
			c-0.2-0.102-0.357-0.29-0.472-0.563c-0.113-0.273-0.144-0.587-0.09-0.942L177.555,65.92z"/>
		<path fill="#FFFFFF" d="M189.246,76.551l0.779-0.937l0.357-0.472l0.367-0.485l1.155-1.574l0.363-0.527
			c0.053-0.07,0.107-0.155,0.166-0.255c0.058-0.1,0.121-0.227,0.19-0.38c0.235-0.466,0.272-0.959,0.112-1.478
			c-0.078-0.224-0.08-0.424-0.005-0.6l0.097-0.174c0.178-0.235,0.424-0.343,0.74-0.324c0.437,0.015,0.932,0.232,1.487,0.652
			c0.494,0.375,0.812,0.656,0.952,0.844c0.153,0.171,0.247,0.461,0.28,0.869l0.248,2.079l0.409,3.083
			c0.038,0.276,0.112,0.482,0.221,0.619c0.104,0.08,0.242,0.053,0.413-0.078l0.264-0.232l0.296-0.392l0.555-0.732
			c0.123-0.276,0.126-0.671,0.008-1.186c-0.046-0.212-0.028-0.411,0.052-0.597l0.109-0.144c0.25-0.331,0.599-0.423,1.047-0.276
			c0.296,0.101,0.671,0.322,1.122,0.664c0.481,0.364,0.803,0.655,0.964,0.873c0.275,0.36,0.333,0.691,0.173,0.996l-0.108,0.144
			l-0.06,0.078c-0.1,0.131-0.219,0.212-0.358,0.244c-0.146,0.055-0.317,0.069-0.514,0.044c-0.195-0.024-0.389,0.011-0.578,0.108
			c-0.189,0.097-0.373,0.263-0.551,0.499l-0.407,0.537l-0.825,1.022l-1.309,1.729l-1.733,2.292c-0.158,0.209-0.306,0.38-0.44,0.511
			c-0.088,0.07-0.156,0.122-0.204,0.154c-0.111,0.054-0.188,0.092-0.229,0.116c-0.221,0.135-0.428,0.129-0.622-0.018
			c-0.128-0.096-0.24-0.271-0.337-0.523c-0.098-0.252-0.154-0.508-0.17-0.768l-0.246-1.938l-0.233-2.094l-0.186-1.646
			c-0.019-0.427-0.113-0.705-0.286-0.835c-0.164-0.125-0.395-0.023-0.688,0.304l-0.762,0.867l-0.382,0.598l-0.223,0.388
			l-0.047,0.109c-0.06,0.093-0.034,0.294,0.073,0.603c0.108,0.308,0.114,0.55,0.018,0.724l-0.077,0.148
			c-0.277,0.367-0.663,0.495-1.155,0.384c-0.385-0.098-0.835-0.343-1.352-0.734c-0.352-0.266-0.624-0.572-0.816-0.916
			c-0.192-0.345-0.219-0.671-0.08-0.979l0.048-0.087l0.04-0.052l0.091-0.097c0.079-0.105,0.409-0.199,0.99-0.282
			C188.74,76.979,189.006,76.822,189.246,76.551z"/>
	</g>
	<g>
		<g>
			<g>
				<path fill="#FFFFFF" d="M91,96.21l11.519-2.424l0.785,3.732c0.297,1.414,0.434,2.349,0.409,2.803
					c-0.034,0.695-0.293,1.328-0.779,1.895s-1.186,0.947-2.103,1.141c-0.708,0.148-1.329,0.145-1.865-0.011
					c-0.536-0.155-0.983-0.401-1.341-0.739c-0.358-0.338-0.625-0.701-0.8-1.092c-0.227-0.531-0.451-1.324-0.672-2.377l-0.319-1.517
					l-4.345,0.914L91,96.21z M101.059,96.522l-3.269,0.688l0.268,1.272c0.193,0.917,0.382,1.517,0.567,1.801
					s0.425,0.486,0.719,0.608c0.293,0.121,0.61,0.146,0.951,0.074c0.419-0.088,0.739-0.284,0.959-0.588
					c0.221-0.303,0.325-0.65,0.314-1.042c-0.006-0.288-0.097-0.853-0.273-1.69L101.059,96.522z"/>
				<path fill="#FFFFFF" d="M98.932,103.466c-0.552-0.16-1.02-0.416-1.393-0.77l0,0c-0.367-0.346-0.646-0.724-0.829-1.134l0,0
					c-0.232-0.544-0.458-1.342-0.681-2.399l0,0l-0.293-1.396l-4.345,0.915l-0.515-2.447L91,96.209l0.025,0.123L91,96.209
					l-0.123,0.026l-0.024-0.123l11.763-2.474l0.811,3.854c0.275,1.309,0.412,2.205,0.414,2.713l0,0c0,0.043-0.002,0.082-0.004,0.121
					l0,0c-0.033,0.723-0.308,1.385-0.808,1.97l0,0c-0.507,0.591-1.235,0.984-2.172,1.181l0,0c-0.353,0.074-0.685,0.111-0.999,0.111
					l0,0C99.524,103.589,99.217,103.548,98.932,103.466L98.932,103.466z M96.275,99.111c0.219,1.048,0.443,1.836,0.662,2.353l0,0
					c0.168,0.373,0.425,0.723,0.773,1.051l0,0c0.343,0.324,0.769,0.56,1.29,0.709l0,0c0.261,0.076,0.546,0.115,0.855,0.115l0,0
					c0.293,0,0.609-0.035,0.948-0.105l0,0c0.898-0.189,1.569-0.557,2.035-1.099l0,0c0.47-0.55,0.716-1.153,0.749-1.819l0,0
					c0-0.035,0.002-0.072,0.002-0.109l0,0c0-0.465-0.136-1.361-0.408-2.662l0,0l-0.761-3.609l-11.274,2.371l0.438,2.082l4.345-0.916
					L96.275,99.111L96.275,99.111z M99.296,101.007c-0.318-0.132-0.578-0.354-0.775-0.656l0,0c-0.205-0.316-0.39-0.92-0.586-1.842
					l0,0l-0.291-1.396l3.39-0.714l0.121-0.024l0.263,1.245c0.176,0.841,0.269,1.404,0.275,1.723l0,0c0,0.008,0,0.025,0,0.049l0,0
					c0.002,0.393-0.111,0.752-0.336,1.059l0,0c-0.24,0.33-0.593,0.546-1.036,0.639l0,0c-0.136,0.026-0.267,0.041-0.396,0.041l0,0
					C99.707,101.13,99.496,101.089,99.296,101.007L99.296,101.007z M97.938,97.306l0.242,1.151c0.189,0.909,0.382,1.505,0.55,1.758
					l0,0c0.172,0.265,0.392,0.447,0.661,0.56l0,0c0.17,0.07,0.347,0.105,0.533,0.105l0,0c0.111,0,0.226-0.013,0.345-0.037l0,0
					c0.396-0.084,0.683-0.263,0.884-0.54l0,0c0.195-0.267,0.289-0.565,0.292-0.911l0,0c0-0.016-0.002-0.036,0-0.053l0,0
					c-0.006-0.269-0.097-0.835-0.271-1.668l0,0l-0.212-1.001L97.938,97.306L97.938,97.306z M100.936,96.548l0.123-0.025
					L100.936,96.548L100.936,96.548z"/>
			</g>
			<g>
				<path fill="#FFFFFF" d="M93.875,108.674l11.103-3.909l1.661,4.719c0.418,1.186,0.622,2.083,0.612,2.691
					c-0.01,0.607-0.213,1.163-0.61,1.666c-0.396,0.502-0.922,0.869-1.579,1.1c-0.833,0.294-1.607,0.291-2.322-0.008
					c-0.715-0.299-1.315-0.91-1.8-1.834c-0.112,0.584-0.282,1.094-0.509,1.527c-0.228,0.436-0.678,1.072-1.353,1.911l-1.689,2.118
					l-0.944-2.681l1.845-2.472c0.661-0.879,1.066-1.465,1.216-1.756c0.15-0.291,0.225-0.57,0.225-0.837
					c0-0.267-0.091-0.657-0.272-1.173l-0.16-0.453l-4.635,1.631L93.875,108.674z M101.071,108.659l0.584,1.658
					c0.378,1.076,0.66,1.731,0.846,1.967c0.185,0.236,0.415,0.391,0.691,0.464c0.275,0.073,0.58,0.052,0.913-0.066
					c0.374-0.132,0.64-0.337,0.799-0.618c0.16-0.279,0.206-0.612,0.138-0.997c-0.039-0.19-0.218-0.741-0.538-1.649l-0.616-1.75
					L101.071,108.659z"/>
				<path fill="#FFFFFF" d="M96.305,115.95l1.884-2.523c0.66-0.875,1.064-1.465,1.206-1.738l0,0c0.142-0.277,0.21-0.536,0.21-0.778
					l0,0c0-0.239-0.086-0.623-0.265-1.132l0,0l-0.119-0.336l-4.634,1.632l-0.83-2.358l0.117-0.041l0.041,0.116l-0.041-0.116
					l-0.117,0.041l-0.043-0.119l11.34-3.992l1.704,4.836c0.409,1.166,0.617,2.057,0.617,2.692l0,0c0,0.019,0,0.026,0.002,0.043l0,0
					c-0.01,0.636-0.226,1.221-0.637,1.743l0,0c-0.411,0.52-0.959,0.902-1.636,1.139l0,0c-0.423,0.149-0.836,0.226-1.235,0.226l0,0
					c-0.409,0-0.802-0.08-1.176-0.236l0,0c-0.669-0.278-1.236-0.817-1.701-1.599l0,0c-0.111,0.461-0.261,0.873-0.451,1.234l0,0
					c-0.234,0.45-0.688,1.09-1.365,1.932l0,0l-1.831,2.296L96.305,115.95L96.305,115.95z M99.417,109.241l0.16,0.454
					c0.183,0.522,0.277,0.921,0.279,1.215l0,0c0,0.29-0.082,0.589-0.238,0.894l0,0c-0.16,0.309-0.565,0.893-1.227,1.773l0,0
					l-1.806,2.419l0.847,2.404l1.549-1.942c0.672-0.836,1.12-1.469,1.34-1.891l0,0c0.22-0.421,0.387-0.918,0.496-1.494l0,0
					l0.068-0.349l0.166,0.316c0.477,0.906,1.057,1.491,1.737,1.775l0,0c0.345,0.144,0.705,0.216,1.081,0.216l0,0
					c0.366,0,0.75-0.068,1.153-0.209l0,0c0.637-0.225,1.14-0.578,1.521-1.061l0,0c0.382-0.483,0.573-1.01,0.585-1.576l0,0
					c-0.004-0.027-0.002-0.045-0.002-0.054l0,0c0-0.581-0.197-1.457-0.604-2.608l0,0l-1.62-4.601l-10.868,3.825l0.708,2.005
					l4.634-1.63L99.417,109.241L99.417,109.241z M103.159,112.868c-0.3-0.08-0.557-0.252-0.756-0.508l0,0
					c-0.21-0.269-0.483-0.92-0.865-2.001l0,0l-0.583-1.659l-0.042-0.119l3.052-1.074l0.658,1.868c0.321,0.912,0.5,1.457,0.544,1.671
					l0,0c0.019,0.119,0.031,0.236,0.031,0.35l0,0c0,0.267-0.062,0.514-0.185,0.729l0,0c-0.175,0.313-0.473,0.537-0.867,0.674l0,0
					c-0.216,0.076-0.423,0.115-0.623,0.115l0,0C103.397,112.913,103.275,112.899,103.159,112.868L103.159,112.868z M101.773,110.274
					c0.374,1.071,0.664,1.73,0.826,1.932l0,0c0.17,0.219,0.374,0.354,0.625,0.42l0,0c0.095,0.027,0.193,0.037,0.298,0.039l0,0
					c0.167,0,0.346-0.033,0.541-0.101l0,0c0.354-0.128,0.59-0.313,0.732-0.563l0,0c0.101-0.177,0.152-0.376,0.152-0.605l0,0
					c0-0.098-0.01-0.199-0.027-0.305l0,0c-0.035-0.17-0.213-0.728-0.534-1.634l0,0l-0.573-1.632l-2.583,0.91L101.773,110.274
					L101.773,110.274z"/>
			</g>
			<g>
				<path fill="#FFFFFF" d="M98.787,121.45l10.656-5.001l1.01,2.151l-10.656,5.001L98.787,121.45z"/>
				<path fill="#FFFFFF" d="M98.673,121.502l0.113-0.051l0.053,0.112l-0.053-0.112L98.673,121.502l-0.053-0.113l10.881-5.105
					l1.117,2.377l-10.882,5.107L98.673,121.502L98.673,121.502z M99.856,123.435l10.429-4.896l-0.903-1.925l-10.429,4.896
					L99.856,123.435L99.856,123.435z"/>
			</g>
			<g>
				<path fill="#FFFFFF" d="M101.54,127.356l10.049-6.131l1.852,3.037l-5.742,6.005l7.955-2.379l1.856,3.043l-10.049,6.131
					l-1.15-1.886l7.91-4.825l-9.127,2.831l-1.192-1.953l6.698-6.813l-7.91,4.825L101.54,127.356z"/>
				<path fill="#FFFFFF" d="M106.139,135.133l7.155-4.364l-8.257,2.562l-1.292-2.121l6.058-6.162l-7.155,4.364l-1.215-1.992
					l0.107-0.063l0.066,0.107l-0.066-0.107l-0.107,0.063l-0.064-0.106l10.261-6.26l1.967,3.226l-5.48,5.732l7.594-2.27l1.971,3.229
					l-10.261,6.264L106.139,135.133L106.139,135.133z M114.286,130.457l-7.804,4.76l1.02,1.673l9.834-6.002l-1.74-2.853
					l-8.311,2.482l5.998-6.274l-1.736-2.846l-9.835,6l1.018,1.67l7.804-4.76l0.154,0.195l-6.63,6.743l1.092,1.786l9.033-2.802
					L114.286,130.457L114.286,130.457z"/>
			</g>
			<g>
				<path fill="#FFFFFF" d="M116.663,148.54l-1.648-1.992l1.405-2.496l-2.999-3.625l-2.68,0.955l-1.607-1.942l11.992-3.97
					l1.602,1.937L116.663,148.54z M117.462,142.2l2.332-4.034l-4.379,1.56L117.462,142.2z"/>
				<path fill="#FFFFFF" d="M114.864,146.56l1.405-2.496l-2.89-3.492l-2.682,0.957l-1.778-2.152l12.248-4.054l1.712,2.067
					l-6.107,11.209l-0.088,0.163L114.864,146.56L114.864,146.56z M116.663,148.539l0.095-0.08L116.663,148.539L116.663,148.539z
					 M116.57,144.035l-1.404,2.497l1.476,1.786l5.937-10.9l-1.496-1.805l-11.735,3.886l1.433,1.734l2.679-0.957L116.57,144.035
					L116.57,144.035z M115.205,139.666l4.865-1.73l-2.5,4.327l-0.093,0.155L115.205,139.666L115.205,139.666z M117.461,142.199
					l0.097-0.081L117.461,142.199L117.461,142.199z M115.623,139.782l1.821,2.198l2.069-3.585L115.623,139.782L115.623,139.782z"/>
			</g>
			<g>
				<path fill="#FFFFFF" d="M118.826,150.712l7.975-8.659l3.679,3.39c0.925,0.852,1.526,1.549,1.802,2.091s0.357,1.127,0.243,1.757
					s-0.407,1.201-0.878,1.713c-0.599,0.649-1.284,1.01-2.055,1.081c-0.772,0.072-1.588-0.188-2.45-0.776
					c0.175,0.568,0.264,1.098,0.267,1.588c0.003,0.49-0.097,1.265-0.3,2.322l-0.499,2.663l-2.091-1.926l0.472-3.048
					c0.171-1.087,0.255-1.794,0.251-2.121c-0.004-0.328-0.069-0.609-0.194-0.845c-0.125-0.235-0.389-0.538-0.791-0.908l-0.354-0.326
					l-3.329,3.614L118.826,150.712z M125.176,147.325l1.293,1.191c0.839,0.772,1.395,1.219,1.669,1.341
					c0.274,0.121,0.55,0.149,0.828,0.085c0.277-0.064,0.536-0.227,0.775-0.486c0.269-0.292,0.407-0.599,0.417-0.921
					c0.009-0.322-0.106-0.638-0.346-0.946c-0.124-0.15-0.54-0.552-1.249-1.204l-1.364-1.257L125.176,147.325z"/>
				<path fill="#FFFFFF" d="M124.385,156l0.481-3.112c0.167-1.061,0.25-1.763,0.25-2.081l0,0c0-0.004-0.002-0.013,0-0.021l0,0
					c-0.004-0.312-0.066-0.572-0.18-0.787l0,0c-0.111-0.212-0.367-0.51-0.764-0.875l0,0l-0.265-0.242l-3.328,3.616l-1.84-1.695
					l0.084-0.091l0.093,0.085l-0.093-0.085l-0.084,0.091l-0.091-0.085l8.144-8.844l3.771,3.476c0.931,0.856,1.538,1.559,1.83,2.127
					l0,0c0.202,0.398,0.306,0.823,0.306,1.27l0,0c0,0.184-0.019,0.371-0.052,0.565l0,0c-0.118,0.655-0.423,1.249-0.909,1.774l0,0
					c-0.615,0.669-1.332,1.049-2.137,1.121l0,0c-0.089,0.008-0.177,0.012-0.266,0.012l0,0c-0.641,0-1.303-0.214-1.984-0.628l0,0
					c0.118,0.458,0.178,0.893,0.182,1.304l0,0v0.021c0,0.506-0.103,1.276-0.301,2.325l0,0l-0.541,2.885L124.385,156L124.385,156z
					 M123.987,148.614l0.355,0.326c0.407,0.375,0.678,0.684,0.816,0.941l0,0c0.136,0.256,0.204,0.558,0.207,0.925l0,0h0.002
					c0,0.354-0.084,1.053-0.252,2.118l0,0l-0.462,2.98l1.877,1.728l0.456-2.438c0.198-1.04,0.297-1.805,0.297-2.279l0,0v-0.021
					c-0.002-0.476-0.089-0.993-0.26-1.551l0,0l-0.101-0.337l0.292,0.196c0.751,0.515,1.459,0.766,2.123,0.766l0,0
					c0.083,0,0.165-0.002,0.244-0.01l0,0c0.739-0.07,1.392-0.411,1.974-1.041l0,0c0.458-0.497,0.739-1.045,0.849-1.649l0,0
					c0.031-0.182,0.047-0.355,0.047-0.522l0,0c0-0.407-0.093-0.791-0.279-1.156l0,0c-0.262-0.517-0.855-1.21-1.776-2.057l0,0
					l-3.589-3.306l-7.803,8.477l1.563,1.438l3.329-3.613L123.987,148.614L123.987,148.614z M128.088,149.971
					c-0.31-0.141-0.859-0.587-1.704-1.363l0,0l-1.292-1.191l-0.093-0.084l2.193-2.384l1.456,1.343
					c0.712,0.656,1.123,1.053,1.264,1.22l0,0c0.241,0.313,0.372,0.645,0.372,0.987l0,0c0,0.006,0,0.021,0,0.039l0,0
					c-0.01,0.357-0.167,0.696-0.45,1.002l0,0c-0.252,0.274-0.533,0.452-0.842,0.524l0,0c-0.104,0.022-0.209,0.035-0.314,0.035l0,0
					C128.478,150.099,128.28,150.055,128.088,149.971L128.088,149.971z M126.554,148.424c0.832,0.769,1.397,1.216,1.633,1.317l0,0
					c0.165,0.072,0.326,0.107,0.489,0.107l0,0c0.086,0,0.173-0.011,0.26-0.029l0,0c0.25-0.058,0.485-0.202,0.712-0.447l0,0
					c0.254-0.279,0.375-0.554,0.384-0.837l0,0c0-0.01,0-0.022,0-0.037l0,0c0-0.278-0.103-0.554-0.318-0.83l0,0
					c-0.109-0.136-0.531-0.543-1.237-1.191l0,0l-1.272-1.173l-1.854,2.013L126.554,148.424L126.554,148.424z"/>
			</g>
			<g>
				<path fill="#FFFFFF" d="M131.138,161.179l2.875-4.035l0.444-8.054l2.269,1.616l-0.446,5.4l4.913-2.218l2.229,1.589l-7.488,3.054
					l-2.866,4.021L131.138,161.179z"/>
				<path fill="#FFFFFF" d="M131.064,161.28l0.072-0.103l0.102,0.072l-0.102-0.072L131.064,161.28l-0.103-0.074l2.927-4.107
					l0.457-8.241l2.51,1.785l-0.436,5.261l4.785-2.159l2.475,1.762l-7.646,3.098l-2.938,4.123L131.064,161.28L131.064,161.28z
					 M133.038,162.376l2.847-3.961l7.278-2.969l-1.987-1.415l-5.041,2.274l0.458-5.541l-2.025-1.442l-0.436,7.863l-2.822,3.963
					L133.038,162.376L133.038,162.376z"/>
			</g>
		</g>
		<g>
			<g>
				<path fill="#FFFFFF" d="M160.153,156.305l1.602-1.683c0.613,0.495,1.201,0.742,1.76,0.738c0.561-0.003,1.113-0.241,1.66-0.714
					c0.578-0.501,0.908-1,0.99-1.499s-0.02-0.912-0.303-1.24c-0.182-0.211-0.398-0.336-0.65-0.377s-0.578,0.017-0.98,0.174
					c-0.273,0.109-0.865,0.395-1.775,0.856c-1.17,0.595-2.1,0.886-2.789,0.874c-0.971-0.017-1.76-0.378-2.369-1.082
					c-0.393-0.453-0.631-0.988-0.715-1.605c-0.086-0.617,0.025-1.238,0.33-1.863s0.799-1.233,1.484-1.825
					c1.117-0.967,2.17-1.449,3.158-1.448s1.852,0.398,2.586,1.191l-1.729,1.634c-0.473-0.391-0.922-0.576-1.348-0.558
					c-0.428,0.019-0.893,0.246-1.4,0.684c-0.521,0.452-0.838,0.913-0.947,1.384c-0.07,0.302-0.008,0.568,0.193,0.799
					c0.182,0.211,0.426,0.314,0.734,0.31c0.391-0.006,1.113-0.284,2.166-0.834s1.885-0.896,2.494-1.038
					c0.609-0.142,1.199-0.124,1.768,0.054c0.566,0.178,1.094,0.548,1.582,1.11c0.439,0.511,0.713,1.11,0.814,1.801
					s-0.014,1.368-0.344,2.033s-0.883,1.332-1.656,2.001c-1.125,0.974-2.215,1.461-3.268,1.463S161.132,157.199,160.153,156.305z"/>
				<path fill="#FFFFFF" d="M163.193,157.766c-1.088,0.002-2.135-0.465-3.126-1.369l0,0l0.085-0.093l0.091,0.087l-0.091-0.087
					l-0.085,0.093l-0.095-0.089l1.77-1.855l0.091,0.072c0.595,0.48,1.15,0.71,1.668,0.71l0,0c0,0.002,0.004,0,0.009,0l0,0
					c0.004-0.002,0.006-0.004,0.004,0l0,0c0.524-0.004,1.047-0.225,1.579-0.684l0,0c0.564-0.489,0.874-0.968,0.948-1.423l0,0
					c0.017-0.107,0.024-0.208,0.024-0.305l0,0c0-0.333-0.104-0.605-0.299-0.835l0,0c-0.166-0.191-0.354-0.299-0.576-0.336l0,0
					c-0.046-0.007-0.096-0.011-0.146-0.013l0,0c-0.203,0-0.461,0.056-0.767,0.18l0,0c-0.264,0.105-0.856,0.391-1.766,0.853l0,0
					c-1.156,0.587-2.087,0.884-2.806,0.884l0,0c0,0,0-0.004-0.043,0.002l0,0c-1-0.015-1.832-0.395-2.459-1.125l0,0
					c-0.409-0.471-0.659-1.03-0.746-1.668l0,0c-0.021-0.141-0.03-0.283-0.03-0.424l0,0c0-0.506,0.123-1.012,0.371-1.514l0,0
					c0.313-0.644,0.819-1.264,1.516-1.864l0,0c1.127-0.977,2.201-1.476,3.258-1.477l0,0c-0.004,0-0.009-0.001-0.016-0.002l0,0
					c1.021,0,1.924,0.417,2.676,1.232l0,0l0.084,0.091l-1.899,1.793l-0.085-0.07c-0.438-0.361-0.842-0.531-1.21-0.531l0,0
					c-0.021,0-0.037,0.003-0.053,0.003l0,0c-0.385,0.016-0.828,0.225-1.324,0.652l0,0c-0.508,0.441-0.807,0.882-0.906,1.319l0,0
					c-0.017,0.07-0.026,0.138-0.026,0.2l0,0c0.002,0.178,0.06,0.332,0.193,0.487l0,0c0.153,0.178,0.345,0.264,0.617,0.267l0,0
					c0,0,0.005,0,0.009,0l0,0c0.004-0.003,0.008-0.003,0.011,0l0,0c0.34,0,1.065-0.273,2.109-0.82l0,0
					c1.06-0.551,1.896-0.9,2.523-1.049l0,0c0.279-0.063,0.556-0.099,0.828-0.099l0,0c0.341,0,0.677,0.049,1.006,0.154l0,0
					c0.595,0.186,1.14,0.572,1.641,1.148l0,0c0.453,0.528,0.737,1.152,0.843,1.864l0,0c0.025,0.167,0.037,0.335,0.035,0.502l0,0
					c0.002,0.543-0.132,1.08-0.391,1.604l0,0c-0.34,0.686-0.904,1.364-1.687,2.04l0,0c-1.14,0.986-2.257,1.492-3.349,1.494l0,0
					L163.193,157.766L163.193,157.766z M163.193,157.518c0,0,0.009,0,0.007,0l0,0c1.014-0.002,2.077-0.471,3.188-1.433l0,0
					c0.764-0.663,1.305-1.317,1.625-1.961l0,0c0.243-0.498,0.365-0.993,0.367-1.495l0,0c-0.002-0.155-0.012-0.31-0.035-0.465l0,0
					c-0.099-0.669-0.361-1.243-0.784-1.738l0,0c-0.479-0.548-0.985-0.902-1.526-1.072l0,0c-0.308-0.097-0.615-0.142-0.931-0.145l0,0
					c-0.252,0.003-0.508,0.031-0.771,0.094l0,0c-0.59,0.138-1.418,0.479-2.465,1.028l0,0c-1.057,0.549-1.773,0.833-2.245,0.844l0,0
					v0.002c-0.328,0.003-0.608-0.117-0.807-0.353l0,0c-0.167-0.19-0.254-0.415-0.252-0.65l0,0c0-0.085,0.01-0.172,0.031-0.258l0,0
					c0.117-0.506,0.452-0.987,0.986-1.45l0,0c0.521-0.448,1.008-0.693,1.468-0.714l0,0c0.029-0.002,0.052-0.002,0.072-0.002l0,0
					c0.419,0,0.847,0.18,1.283,0.52l0,0l1.558-1.475c-0.696-0.71-1.493-1.059-2.439-1.064l0,0c0,0-0.005,0,0.028,0.002l0,0
					c-0.945,0-1.972,0.465-3.074,1.418l0,0c-0.675,0.585-1.158,1.182-1.453,1.788l0,0c-0.233,0.472-0.348,0.939-0.348,1.402l0,0
					c0,0.128,0.011,0.258,0.029,0.389l0,0c0.083,0.595,0.308,1.104,0.686,1.54l0,0c0.588,0.679,1.336,1.021,2.234,1.045l0,0
					c0.054-0.015,0.078-0.007,0.08-0.007l0,0c0.65,0,1.555-0.28,2.692-0.86l0,0c0.911-0.461,1.503-0.746,1.786-0.859l0,0
					c0.326-0.132,0.611-0.196,0.859-0.196l0,0c0.065-0.002,0.128,0.005,0.188,0.015l0,0c0.281,0.043,0.528,0.188,0.725,0.419l0,0
					c0.237,0.272,0.359,0.613,0.359,0.998l0,0c0,0.111-0.011,0.225-0.026,0.342l0,0c-0.091,0.544-0.442,1.063-1.033,1.574l0,0
					c-0.554,0.48-1.129,0.735-1.755,0.738l0,0v0.005c-0.001,0-0.003,0.002-0.014,0l0,0c-0.562-0.004-1.135-0.241-1.721-0.692l0,0
					l-1.435,1.507C161.261,157.114,162.214,157.516,163.193,157.518L163.193,157.518z"/>
			</g>
			<g>
				<path fill="#FFFFFF" d="M173.997,142.213l2.084-1.225c0.719,1.122,1.035,2.197,0.949,3.225
					c-0.084,1.028-0.551,2.012-1.395,2.951c-1.045,1.162-2.303,1.76-3.77,1.794s-2.889-0.567-4.266-1.807
					c-1.457-1.31-2.25-2.703-2.379-4.181c-0.129-1.477,0.357-2.828,1.461-4.055c0.963-1.07,2.061-1.655,3.295-1.755
					c0.732-0.062,1.537,0.124,2.418,0.555l-1.156,2.125c-0.547-0.305-1.1-0.411-1.656-0.319c-0.559,0.093-1.049,0.373-1.471,0.843
					c-0.584,0.649-0.824,1.385-0.723,2.207c0.102,0.823,0.676,1.703,1.717,2.642c1.107,0.995,2.074,1.505,2.902,1.529
					c0.826,0.024,1.527-0.282,2.1-0.919c0.422-0.47,0.637-1.008,0.643-1.614S174.505,142.937,173.997,142.213z"/>
				<path fill="#FFFFFF" d="M171.747,149.08c-1.463,0.002-2.878-0.619-4.231-1.837l0,0c-1.472-1.322-2.287-2.746-2.419-4.263l0,0
					c-0.015-0.157-0.022-0.313-0.022-0.471l0,0c0-1.333,0.508-2.565,1.515-3.677l0,0c0.978-1.09,2.108-1.696,3.378-1.798l0,0
					c0.091-0.008,0.188-0.013,0.287-0.013l0,0c0.679,0,1.409,0.194,2.195,0.58l0,0l0.117,0.058l-1.279,2.351l-0.109-0.062
					c-0.406-0.226-0.807-0.337-1.211-0.337l0,0c-0.124,0-0.246,0.009-0.365,0.031l0,0c-0.528,0.089-0.99,0.351-1.397,0.803l0,0
					c-0.48,0.536-0.714,1.116-0.716,1.762l0,0c0.002,0.114,0.007,0.228,0.025,0.347l0,0c0.093,0.776,0.646,1.637,1.675,2.563l0,0
					c1.098,0.988,2.045,1.478,2.819,1.498l0,0c0.03,0,0.06,0,0.089,0l0,0c0.753-0.002,1.382-0.291,1.917-0.877l0,0
					c0.404-0.452,0.604-0.956,0.612-1.531l0,0l-0.002-0.022c0-0.565-0.239-1.201-0.73-1.902l0,0l0.104-0.07l0.062,0.107
					l-0.062-0.107l-0.104,0.07l-0.078-0.112l2.305-1.352l0.066,0.1c0.649,1.018,0.981,2.004,0.979,2.961l0,0
					c0,0.113-0.004,0.227-0.012,0.343l0,0c-0.087,1.061-0.568,2.069-1.427,3.024l0,0c-1.063,1.185-2.36,1.802-3.862,1.835l0,0
					C171.822,149.082,171.782,149.08,171.747,149.08L171.747,149.08z M169.987,137.285c-1.201,0.097-2.266,0.662-3.213,1.713l0,0
					c-0.974,1.079-1.45,2.245-1.45,3.512l0,0c0,0.146,0.008,0.297,0.021,0.447l0,0c0.126,1.44,0.897,2.805,2.338,4.101l0,0
					c1.322,1.188,2.674,1.772,4.064,1.774l0,0c0.04,0,0.081,0,0.116,0l0,0c1.434-0.035,2.651-0.612,3.679-1.752l0,0
					c0.83-0.926,1.281-1.882,1.362-2.876l0,0c0.008-0.111,0.013-0.217,0.013-0.324l0,0c0-0.867-0.289-1.771-0.877-2.723l0,0
					l-1.866,1.095c0.458,0.685,0.7,1.328,0.7,1.934l0,0c0,0,0,0.022,0,0.024l0,0c-0.005,0.636-0.233,1.207-0.675,1.696l0,0
					c-0.572,0.634-1.281,0.962-2.103,0.96l0,0c-0.029,0-0.059,0-0.094,0l0,0c-0.877-0.027-1.863-0.558-2.981-1.561l0,0
					c-1.052-0.949-1.648-1.849-1.756-2.718l0,0c-0.019-0.13-0.027-0.258-0.027-0.38l0,0c0-0.707,0.265-1.357,0.78-1.929l0,0
					c0.438-0.487,0.956-0.784,1.54-0.881l0,0c0.136-0.027,0.271-0.035,0.408-0.035l0,0c0.411-0.002,0.819,0.104,1.221,0.308l0,0
					l1.033-1.9c-0.715-0.335-1.369-0.5-1.967-0.5l0,0C170.165,137.271,170.076,137.276,169.987,137.285L169.987,137.285z"/>
			</g>
			<g>
				<path fill="#FFFFFF" d="M181.103,140.362l-9.732-6.621l1.336-1.965l3.832,2.605l2.619-3.85l-3.83-2.606l1.336-1.965l9.732,6.621
					l-1.336,1.966l-4.256-2.896l-2.619,3.85l4.254,2.896L181.103,140.362z"/>
				<path fill="#FFFFFF" d="M171.196,133.771l1.475-2.169l3.832,2.605l2.479-3.645l-3.83-2.607l1.477-2.169l9.938,6.76l-1.477,2.175
					l-4.256-2.897l-2.479,3.644l4.253,2.895l-1.404,2.07l-0.07,0.103L171.196,133.771L171.196,133.771z M181.102,140.362l0.07-0.104
					L181.102,140.362L181.102,140.362z M171.541,133.706l9.527,6.482l1.194-1.76l-4.254-2.896l2.763-4.054l4.255,2.895l1.194-1.76
					l-9.527-6.481l-1.194,1.759l3.83,2.606l-2.76,4.058l-3.832-2.607L171.541,133.706L171.541,133.706z"/>
			</g>
			<g>
				<path fill="#FFFFFF" d="M183.13,126.81c-1.074-0.53-1.898-1.137-2.469-1.818c-0.42-0.505-0.74-1.07-0.963-1.696
					s-0.314-1.237-0.277-1.834c0.047-0.795,0.281-1.622,0.705-2.481c0.768-1.555,1.865-2.562,3.291-3.02
					c1.426-0.457,2.998-0.262,4.715,0.586c1.705,0.842,2.809,1.963,3.314,3.364s0.375,2.877-0.391,4.428
					c-0.773,1.569-1.869,2.581-3.283,3.035S184.81,127.639,183.13,126.81z M184.142,124.578c1.195,0.59,2.238,0.762,3.127,0.514
					s1.543-0.796,1.963-1.646s0.457-1.698,0.113-2.545c-0.342-0.847-1.125-1.572-2.35-2.177c-1.211-0.597-2.244-0.776-3.1-0.54
					c-0.857,0.236-1.502,0.794-1.936,1.673c-0.434,0.878-0.482,1.734-0.145,2.569C182.151,123.262,182.927,123.979,184.142,124.578z
					"/>
				<path fill="#FFFFFF" d="M183.073,126.921l0.056-0.112l0.056-0.111c1.071,0.527,2.084,0.79,3.037,0.79l0,0
					c0.521,0,1.023-0.077,1.511-0.233l0,0c1.379-0.445,2.446-1.425,3.211-2.973l0,0c0.45-0.922,0.676-1.809,0.678-2.664l0,0
					c-0.002-0.569-0.099-1.121-0.293-1.664l0,0c-0.494-1.365-1.567-2.463-3.252-3.296l0,0c-1.106-0.545-2.14-0.814-3.109-0.814l0,0
					c-0.522,0.002-1.025,0.078-1.513,0.236l0,0c-1.392,0.448-2.46,1.424-3.217,2.956l0,0c-0.418,0.848-0.647,1.657-0.692,2.437l0,0
					c-0.009,0.079-0.011,0.161-0.011,0.246l0,0c0.002,0.501,0.093,1.011,0.281,1.533l0,0c0.217,0.614,0.531,1.166,0.94,1.658l0,0
					c0.555,0.664,1.364,1.264,2.429,1.788l0,0l-0.056,0.111L183.073,126.921c-1.085-0.535-1.922-1.151-2.51-1.851l0,0
					c-0.43-0.517-0.756-1.096-0.983-1.734l0,0c-0.196-0.548-0.296-1.087-0.294-1.618l0,0c0-0.089,0.002-0.178,0.009-0.265l0,0
					c0.049-0.814,0.289-1.658,0.719-2.53l0,0c0.777-1.577,1.904-2.615,3.363-3.082l0,0c0.513-0.163,1.042-0.248,1.59-0.246l0,0
					c1.015,0,2.088,0.279,3.219,0.84l0,0c1.727,0.85,2.859,1.994,3.378,3.433l0,0c0.204,0.571,0.308,1.154,0.306,1.75l0,0
					c0.002,0.9-0.237,1.826-0.703,2.775l0,0c-0.783,1.592-1.907,2.634-3.356,3.099l0,0c-0.513,0.163-1.044,0.246-1.588,0.246l0,0
					C185.222,127.737,184.171,127.462,183.073,126.921L183.073,126.921z M186.438,125.323c-0.715,0-1.5-0.214-2.353-0.635l0,0
					l0.057-0.11l0.054-0.113c0.831,0.409,1.577,0.609,2.242,0.609l0,0c0.277,0,0.542-0.034,0.796-0.104l0,0
					c0.856-0.24,1.477-0.759,1.884-1.58l0,0c0.223-0.452,0.332-0.898,0.332-1.343l0,0c0-0.366-0.076-0.732-0.223-1.1l0,0
					c-0.324-0.807-1.079-1.514-2.288-2.11l0,0c-0.856-0.422-1.615-0.629-2.274-0.629l0,0c-0.263,0-0.509,0.031-0.735,0.097l0,0
					c-0.825,0.228-1.436,0.755-1.858,1.608l0,0c-0.236,0.479-0.354,0.946-0.354,1.405l0,0c0,0.355,0.067,0.707,0.213,1.061l0,0
					c0.318,0.794,1.066,1.495,2.266,2.086l0,0l-0.054,0.113l-0.057,0.11c-1.231-0.604-2.034-1.34-2.388-2.214l0,0
					c-0.156-0.381-0.231-0.768-0.231-1.156l0,0c0-0.502,0.129-1.008,0.381-1.517l0,0c0.444-0.903,1.122-1.494,2.012-1.738l0,0
					c0.254-0.07,0.522-0.105,0.806-0.105l0,0c0.711,0,1.505,0.221,2.384,0.654l0,0c1.24,0.612,2.053,1.354,2.41,2.241l0,0
					c0.159,0.393,0.242,0.792,0.239,1.193l0,0c0.003,0.485-0.117,0.973-0.355,1.452l0,0c-0.432,0.879-1.122,1.458-2.042,1.712l0,0
					c-0.271,0.073-0.55,0.112-0.84,0.112l0,0C186.454,125.323,186.446,125.323,186.438,125.323L186.438,125.323z"/>
			</g>
			<g>
				<path fill="#FFFFFF" d="M189.05,114.429c-1.141-0.371-2.041-0.853-2.705-1.445c-0.486-0.439-0.885-0.953-1.195-1.541
					s-0.488-1.18-0.537-1.774c-0.068-0.794,0.045-1.646,0.342-2.558c0.535-1.648,1.477-2.803,2.82-3.46
					c1.346-0.657,2.93-0.69,4.752-0.098c1.807,0.587,3.063,1.538,3.764,2.853s0.783,2.793,0.25,4.438
					c-0.541,1.665-1.48,2.824-2.814,3.477C192.39,114.972,190.833,115.008,189.05,114.429z M189.731,112.075
					c1.268,0.412,2.322,0.432,3.168,0.059c0.844-0.373,1.412-1.01,1.705-1.911s0.209-1.745-0.252-2.534s-1.342-1.395-2.639-1.816
					c-1.283-0.417-2.332-0.447-3.146-0.09c-0.813,0.357-1.371,1.002-1.674,1.934c-0.305,0.932-0.229,1.787,0.225,2.564
					C187.573,111.058,188.442,111.656,189.731,112.075z"/>
				<path fill="#FFFFFF" d="M191.414,114.96c-0.755,0-1.558-0.139-2.404-0.414l0,0l0.04-0.117l0.037-0.12
					c0.827,0.269,1.603,0.403,2.327,0.403l0,0c0.816,0,1.565-0.17,2.257-0.505l0,0c1.299-0.637,2.215-1.763,2.749-3.402l0,0
					c0.223-0.703,0.339-1.37,0.337-2.005l0,0c0-0.831-0.19-1.609-0.577-2.337l0,0c-0.685-1.28-1.907-2.212-3.692-2.792l0,0
					c-0.856-0.277-1.652-0.416-2.392-0.416l0,0c-0.823,0-1.576,0.17-2.267,0.506l0,0c-1.312,0.645-2.228,1.764-2.757,3.389l0,0
					c-0.24,0.729-0.356,1.415-0.356,2.064l0,0c0,0.148,0.007,0.296,0.021,0.443l0,0c0.048,0.576,0.22,1.151,0.523,1.727l0,0
					c0.303,0.575,0.691,1.076,1.167,1.506l0,0c0.647,0.577,1.532,1.053,2.66,1.419l0,0l-0.037,0.12l-0.04,0.117
					c-1.151-0.374-2.068-0.861-2.749-1.471l0,0c-0.498-0.448-0.905-0.974-1.224-1.576l0,0c-0.317-0.6-0.501-1.209-0.551-1.82l0,0
					c-0.013-0.152-0.021-0.308-0.021-0.465l0,0c0-0.678,0.12-1.393,0.368-2.143l0,0c0.542-1.672,1.508-2.861,2.884-3.533l0,0
					c0.726-0.355,1.52-0.533,2.378-0.531l0,0c0.77,0,1.593,0.141,2.468,0.426l0,0c1.827,0.594,3.117,1.564,3.835,2.912l0,0
					c0.408,0.764,0.61,1.584,0.608,2.455l0,0c0,0.664-0.118,1.357-0.35,2.082l0,0c-0.546,1.688-1.51,2.881-2.877,3.549l0,0
					c-0.722,0.352-1.507,0.529-2.352,0.529l0,0C191.424,114.96,191.419,114.96,191.414,114.96L191.414,114.96z M189.692,112.194
					l0.038-0.119l0.039-0.119c0.655,0.212,1.249,0.317,1.78,0.317l0,0c0.48,0,0.91-0.085,1.298-0.255l0,0
					c0.814-0.361,1.353-0.964,1.638-1.834l0,0c0.109-0.34,0.163-0.668,0.163-0.987l0,0c0-0.503-0.134-0.982-0.405-1.446l0,0
					c-0.438-0.752-1.288-1.344-2.568-1.76l0,0c-0.683-0.223-1.295-0.333-1.833-0.333l0,0c-0.461,0-0.869,0.079-1.225,0.237l0,0
					c-0.78,0.346-1.31,0.954-1.605,1.857l0,0c-0.12,0.365-0.18,0.71-0.18,1.045l0,0c0,0.499,0.13,0.969,0.393,1.42l0,0
					c0.433,0.74,1.272,1.325,2.545,1.738l0,0l-0.039,0.119L189.692,112.194c-1.307-0.426-2.205-1.036-2.683-1.852l0,0
					c-0.285-0.485-0.428-1.002-0.428-1.545l0,0c0-0.363,0.066-0.738,0.192-1.121l0,0c0.31-0.959,0.896-1.641,1.741-2.008l0,0
					c0.392-0.176,0.836-0.261,1.326-0.261l0,0c0.573,0,1.21,0.116,1.909,0.345l0,0c1.313,0.427,2.226,1.045,2.708,1.873l0,0
					c0.291,0.496,0.44,1.023,0.438,1.571l0,0c0.002,0.348-0.059,0.701-0.176,1.063l0,0c-0.301,0.931-0.898,1.604-1.773,1.988l0,0
					c-0.422,0.182-0.889,0.274-1.398,0.274l0,0C190.985,112.523,190.367,112.411,189.692,112.194L189.692,112.194z"/>
			</g>
			<g>
				<path fill="#FFFFFF" d="M198.899,101.731l-11.479-2.128l0.434-2.337l9.529,1.767l1.076-5.811l1.951,0.362L198.899,101.731z"/>
				<path fill="#FFFFFF" d="M187.272,99.703l0.48-2.583l9.529,1.768l1.076-5.811l2.198,0.408l-1.536,8.269l-0.022,0.124
					L187.272,99.703L187.272,99.703z M198.898,101.731l0.022-0.123L198.898,101.731L198.898,101.731z M187.564,99.503l11.234,2.084
					l1.466-7.903l-1.707-0.317l-1.076,5.813l-9.529-1.767L187.564,99.503L187.564,99.503z"/>
			</g>
		</g>
	</g>
	<g>
		<g>
			<path fill="#FFFFFF" d="M142.286,80.507c0.797,0.272,1.578,0.597,2.324,0.986c0.512,0.309,1.02,0.641,1.422,1.088
				c0.031,0.039,0.098,0.115,0.127,0.153c0.542,0.65,0.631,1.572,0.375,2.36c-0.374,1.167-1.124,2.165-1.881,3.111
				c-2.09,2.491-4.477,4.713-6.811,6.971c0.291-1.021,0.922-1.892,1.523-2.748c1.279-1.769,2.699-3.473,3.572-5.494
				c0.584-1.349,0.85-2.9,0.4-4.329C143.138,81.838,142.685,81.179,142.286,80.507 M148.083,82.823
				c2.051,1.132,3.908,2.788,4.842,4.978c1.164,2.635,0.971,5.664,0.158,8.367c-0.59,2.037-1.547,3.945-2.633,5.758
				c1.432-1.385,2.803-2.915,3.635-4.744c1.182,1.613,1.721,3.783,1.109,5.725c-0.486,1.541-1.736,2.729-3.162,3.431
				c-1.258,0.623-2.635,1.02-4.033,1.159c0.76-2.881,0.223-6.246-1.949-8.397c-0.506,0.632-1.166,1.103-1.789,1.606
				c-1.303,1.057-2.617,2.313-3.002,4.008c-0.252,0.924-0.063,1.873,0.117,2.788c-1.746-0.624-3.447-1.731-4.256-3.459
				c-0.82-1.739-0.588-3.8,0.16-5.522c1.107-2.638,3.164-4.707,5.236-6.607c1.666-1.559,3.5-3.008,4.744-4.95
				C148.054,85.75,148.378,84.247,148.083,82.823 M142.287,78.507c-0.591,0-1.166,0.263-1.553,0.739
				c-0.528,0.65-0.595,1.561-0.168,2.281l0.211,0.35c0.274,0.451,0.533,0.876,0.627,1.235c0.008,0.031,0.018,0.063,0.027,0.094
				c0.255,0.813,0.139,1.855-0.328,2.934c-0.611,1.416-1.569,2.704-2.584,4.067c-0.26,0.349-0.519,0.698-0.773,1.05l-0.088,0.125
				c-0.64,0.91-1.366,1.941-1.738,3.246c-0.163,0.57-0.062,1.164,0.246,1.638c-0.268,0.473-0.513,0.965-0.729,1.479
				c-1.062,2.445-1.111,5.06-0.125,7.15c1.19,2.542,3.589,3.845,5.392,4.489c0.216,0.077,0.439,0.115,0.661,0.115
				c0.475,0,0.944-0.171,1.315-0.491c0.545-0.47,0.794-1.205,0.656-1.911c-0.141-0.716-0.273-1.393-0.146-1.858
				c0.007-0.027,0.014-0.055,0.021-0.083c0.25-1.101,1.259-2.043,2.312-2.897l0.206-0.164c0.648,1.415,0.791,3.178,0.338,4.892
				c-0.167,0.633-0.013,1.309,0.413,1.808c0.382,0.448,0.939,0.702,1.521,0.702c0.065,0,0.132-0.003,0.198-0.01
				c1.648-0.165,3.237-0.621,4.723-1.357c2.048-1.008,3.573-2.693,4.182-4.621c0.771-2.45,0.247-5.256-1.403-7.508
				c-0.112-0.154-0.245-0.29-0.393-0.403c0.562-2.404,0.788-5.572-0.552-8.604c-1.007-2.362-2.982-4.417-5.704-5.92
				c-0.302-0.167-0.635-0.249-0.967-0.249c-0.275,0-0.55,0.057-0.806,0.169c-0.515-0.506-1.086-0.881-1.634-1.211
				c-0.036-0.021-0.071-0.042-0.108-0.061c-0.8-0.417-1.676-0.79-2.603-1.105C142.72,78.542,142.502,78.507,142.287,78.507
				L142.287,78.507z"/>
		</g>
		<g>
			<path fill="#FFFFFF" d="M135.678,110.544c6.543-0.038,13.092-0.002,19.639-0.02c0.291,0.009,0.686-0.021,0.82,0.309
				c0.223,0.262,0.029,0.594-0.182,0.787c-0.252,0.107-0.535,0.074-0.803,0.089c-6.461-0.017-12.922,0.008-19.381-0.015
				C135.035,111.789,134.95,110.567,135.678,110.544z"/>
			<path fill="#FFFFFF" d="M136.222,112.433c6.295-0.01,12.59,0.025,18.883-0.018c0.057,0.768,0.303,1.717-0.223,2.368
				c-0.818,0.565-1.824,0.868-2.48,1.659c-4.467,0.018-8.932,0.002-13.398,0.006c-0.426-0.393-0.873-0.775-1.4-1.031
				c-0.463-0.256-1.021-0.426-1.32-0.895C136.149,113.834,136.233,113.128,136.222,112.433z"/>
			<path fill="#FFFFFF" d="M140.233,117.134c0.832-0.158,1.676-0.008,2.518-0.024c2.547-0.01,5.096,0.003,7.643-0.016
				c0.428,0.03,0.928-0.063,1.275,0.252c0.506,0.416,0.502,1.282-0.021,1.686c-0.342,0.303-0.826,0.239-1.244,0.256
				c-3.348-0.027-6.697,0.026-10.043-0.027C139.194,119.211,139.085,117.312,140.233,117.134z"/>
			<path fill="#FFFFFF" d="M140.231,120.06c3.607-0.01,7.217-0.012,10.826-0.008c-0.043,0.977-0.443,1.881-0.914,2.721
				c-0.66,1.227-0.629,2.659-0.707,4.007c-2.48,0.143-4.982,0.246-7.455-0.109c0.033-1.445-0.096-2.962-0.859-4.229
				C140.675,121.712,140.333,120.917,140.231,120.06z"/>
		</g>
	</g>
</g>
</svg>
